<svg 
          width="20.66666603088379" 
          height="25.833332061767578" fill="none" 
          xmlns="http://www.w3.org/2000/svg">
          <path d="M 5.326832647164679 6.4583330154418945 L 5.166666507720947 6.4583330154418945 L 5.166666507720947 3.874999809265137 C 5.166666507720947 2.8472859625235856 5.5749237585635925 1.8616647226189684 6.301627203675935 1.1349612909202733 C 7.028330648788277 0.4082578592215782 8.013952522800345 1.1472304023104654e-15 9.041666388511658 0 L 11.624999642372131 0 C 12.652713508083444 5.736152011552327e-16 13.638335382095512 0.4082578592215782 14.365038827207854 1.1349612909202733 C 15.091742272320197 1.8616647226189684 15.499999523162842 2.8472859625235856 15.499999523162842 3.874999809265137 L 15.499999523162842 6.4583330154418945 L 15.33983338371911 6.4583330154418945 C 16.954400191665187 7.352244027662425 18.300028255372673 8.662346418494668 19.23681033082744 10.252422583112093 C 20.173592406282204 11.842498747729518 20.66732326526511 13.654490494173752 20.66666603088379 15.499999237060548 L 20.66666603088379 21.958332252502444 C 20.666666030883786 22.986046099243996 20.258408780041144 23.971667955063243 19.5317053349288 24.698371386761938 C 18.80500188981646 25.425074818460633 17.81938001580439 25.833332061767575 16.79166615009308 25.833332061767578 L 3.8749998807907104 25.833332061767578 C 2.8472860150793977 25.833332061767575 1.8616647569819733 25.425074818460633 1.1349613118696311 24.698371386761938 C 0.4082578667572889 23.971667955063243 1.147230423486289e-15 22.986046099243996 0 21.958332252502444 L 0 15.499999237060548 C 0 11.609499320157376 2.1493326956431247 8.220166214013101 5.326832647164679 6.4583330154418945 L 5.326832647164679 6.4583330154418945 Z M 7.749999761581421 3.874999809265137 L 7.749999761581421 5.492166209093739 C 9.444537080848221 5.055453709771643 11.222128950035568 5.055453709771643 12.916666269302368 5.492166209093739 L 12.916666269302368 3.874999809265137 C 12.916666269302368 3.5324285141863982 12.780580101995946 3.2038883126055144 12.53834562670761 2.9616538417883933 C 12.296111151419273 2.719419370971272 11.967570943774124 2.5833332061767584 11.624999642372131 2.583333206176758 L 9.041666388511658 2.583333206176758 C 8.699095087109665 2.583333206176758 8.370554879464516 2.719419370971272 8.12832040417618 2.9616538417883933 C 7.886085928887843 3.2038883126055144 7.749999761581421 3.5324285141863982 7.749999761581421 3.874999809265137 Z M 2.5833332538604736 15.499999237060548 L 2.5833332538604736 21.958332252502444 C 2.5833332538604736 22.300903547581182 2.7194194211668954 22.62944498099133 2.961653896455232 22.87167945180845 C 3.2038883717435684 23.11391392262557 3.532428579388718 23.24999885559082 3.8749998807907104 23.24999885559082 L 16.79166615009308 23.24999885559082 C 17.13423745149507 23.24999885559082 17.46277889096951 23.11391392262557 17.705013366257845 22.87167945180845 C 17.94724784154618 22.62944498099133 18.083332777023315 22.300903547581182 18.083332777023315 21.958332252502444 L 18.083332777023315 15.499999237060548 C 18.083332777023315 13.444571543577446 17.266818275338025 11.473329063768212 15.81341138511334 10.019922200370821 C 14.360004494888656 8.566515336973431 12.38876074686452 7.749999618530277 10.333333015441895 7.749999618530274 C 8.277905284019269 7.749999618530277 6.30666276782442 8.566515336973431 4.853255877599736 10.019922200370821 C 3.3998489873750515 11.473329063768212 2.583333253860476 13.444571543577446 2.5833332538604736 15.499999237060548 L 2.5833332538604736 15.499999237060548 Z" fill="rgb(0,0,0)"/>
        </svg>